<svg width="24" height="24" viewBox="0 0 24 24" fill="none" xmlns="http://www.w3.org/2000/svg">
<mask id="mask0_31_91" style="mask-type:alpha" maskUnits="userSpaceOnUse" x="0" y="0" width="24" height="24">
<rect width="24" height="24" fill="#D9D9D9"/>
</mask>
<g mask="url(#mask0_31_91)">
<path d="M12 15.075L15.075 12L12 8.925L11.525 9.4L13.775 11.65H8.65005V12.35H13.775L11.525 14.6L12 15.075ZM12.0044 20.7C10.8015 20.7 9.6704 20.4717 8.6111 20.0152C7.55178 19.5587 6.63032 18.9391 5.84672 18.1565C5.06314 17.3739 4.4428 16.4536 3.9857 15.3956C3.5286 14.3377 3.30005 13.2073 3.30005 12.0044C3.30005 10.8015 3.52831 9.67035 3.98482 8.61105C4.44136 7.55173 5.06092 6.63028 5.84352 5.8467C6.62614 5.0631 7.54643 4.44275 8.6044 3.98565C9.66237 3.52855 10.7928 3.3 11.9957 3.3C13.1986 3.3 14.3297 3.52826 15.389 3.98478C16.4483 4.44131 17.3698 5.06088 18.1533 5.84348C18.9369 6.62609 19.5573 7.54638 20.0144 8.60435C20.4715 9.66232 20.7 10.7928 20.7 11.9957C20.7 13.1986 20.4718 14.3297 20.0153 15.389C19.5587 16.4483 18.9392 17.3697 18.1566 18.1533C17.374 18.9369 16.4537 19.5572 15.3957 20.0143C14.3377 20.4714 13.2073 20.7 12.0044 20.7ZM12 20C14.2334 20 16.125 19.225 17.675 17.675C19.225 16.125 20 14.2333 20 12C20 9.76667 19.225 7.875 17.675 6.325C16.125 4.775 14.2334 4 12 4C9.76672 4 7.87505 4.775 6.32505 6.325C4.77505 7.875 4.00005 9.76667 4.00005 12C4.00005 14.2333 4.77505 16.125 6.32505 17.675C7.87505 19.225 9.76672 20 12 20Z" fill="#0000FF"/>
</g>
</svg>
