<svg width="88" height="56" viewBox="0 0 88 56" fill="none" xmlns="http://www.w3.org/2000/svg">
<path d="M16.688 23H15.248L2.064 2.904V23H0.624V0.567999H2.064L15.248 20.6V0.567999H16.688V23ZM37.6158 13.144C37.6158 13.912 37.5944 14.488 37.5518 14.872H22.5438C22.5864 16.4293 22.9278 17.7413 23.5677 18.808C24.2078 19.8747 25.0504 20.6747 26.0958 21.208C27.1411 21.7413 28.2824 22.008 29.5198 22.008C31.2264 22.008 32.6558 21.592 33.8078 20.76C34.9598 19.9067 35.6851 18.7547 35.9838 17.304H37.4878C37.1464 19.0747 36.2718 20.5147 34.8638 21.624C33.4558 22.712 31.6744 23.256 29.5198 23.256C27.8984 23.256 26.4478 22.8933 25.1678 22.168C23.8878 21.4427 22.8851 20.408 22.1598 19.064C21.4344 17.6987 21.0718 16.1093 21.0718 14.296C21.0718 12.4827 21.4238 10.904 22.1278 9.56C22.8531 8.216 23.8558 7.192 25.1358 6.488C26.4158 5.76267 27.8771 5.4 29.5198 5.4C31.1838 5.4 32.6238 5.76267 33.8398 6.488C35.0771 7.192 36.0158 8.14133 36.6558 9.336C37.2958 10.5093 37.6158 11.7787 37.6158 13.144ZM36.1758 13.688C36.2398 12.152 35.9624 10.8507 35.3438 9.784C34.7464 8.71733 33.9251 7.928 32.8798 7.416C31.8344 6.88267 30.7038 6.616 29.4878 6.616C28.2718 6.616 27.1411 6.88267 26.0958 7.416C25.0718 7.928 24.2291 8.71733 23.5677 9.784C22.9278 10.8507 22.5864 12.152 22.5438 13.688H36.1758ZM44.1118 6.872V18.36C44.1118 19.64 44.3464 20.5253 44.8158 21.016C45.2851 21.4853 46.1171 21.72 47.3118 21.72H49.2638V23H47.0878C45.5731 23 44.4531 22.648 43.7278 21.944C43.0238 21.2187 42.6718 20.024 42.6718 18.36V6.872H40.0478V5.624H42.6718V1.208H44.1118V5.624H49.2638V6.872H44.1118ZM16.688 55H15.248L2.064 34.904V55H0.624V32.568H2.064L15.248 52.6V32.568H16.688V55ZM37.6158 45.144C37.6158 45.912 37.5944 46.488 37.5518 46.872H22.5438C22.5864 48.4293 22.9278 49.7413 23.5677 50.808C24.2078 51.8747 25.0504 52.6747 26.0958 53.208C27.1411 53.7413 28.2824 54.008 29.5198 54.008C31.2264 54.008 32.6558 53.592 33.8078 52.76C34.9598 51.9067 35.6851 50.7547 35.9838 49.304H37.4878C37.1464 51.0747 36.2718 52.5147 34.8638 53.624C33.4558 54.712 31.6744 55.256 29.5198 55.256C27.8984 55.256 26.4478 54.8933 25.1678 54.168C23.8878 53.4427 22.8851 52.408 22.1598 51.064C21.4344 49.6987 21.0718 48.1093 21.0718 46.296C21.0718 44.4827 21.4238 42.904 22.1278 41.56C22.8531 40.216 23.8558 39.192 25.1358 38.488C26.4158 37.7627 27.8771 37.4 29.5198 37.4C31.1838 37.4 32.6238 37.7627 33.8398 38.488C35.0771 39.192 36.0158 40.1413 36.6558 41.336C37.2958 42.5093 37.6158 43.7787 37.6158 45.144ZM36.1758 45.688C36.2398 44.152 35.9624 42.8507 35.3438 41.784C34.7464 40.7173 33.9251 39.928 32.8798 39.416C31.8344 38.8827 30.7038 38.616 29.4878 38.616C28.2718 38.616 27.1411 38.8827 26.0958 39.416C25.0718 39.928 24.2291 40.7173 23.5677 41.784C22.9278 42.8507 22.5864 44.152 22.5438 45.688H36.1758ZM51.1518 55L46.2558 47.352L41.4557 55H39.9198L45.5198 46.232L39.9838 37.624H41.6158L46.4478 45.112L51.1838 37.624H52.6878L47.1518 46.264L52.7838 55H51.1518ZM70.687 37.624V55H69.247V51.224C68.7563 52.5467 67.935 53.56 66.783 54.264C65.6523 54.9467 64.351 55.288 62.879 55.288C60.8097 55.288 59.1137 54.6587 57.791 53.4C56.4897 52.12 55.839 50.232 55.839 47.736V37.624H57.247V47.64C57.247 49.7093 57.7697 51.2987 58.815 52.408C59.8603 53.496 61.279 54.04 63.071 54.04C64.9483 54.04 66.4417 53.4427 67.551 52.248C68.6817 51.0533 69.247 49.2827 69.247 46.936V37.624H70.687ZM81.7285 55.256C79.7872 55.256 78.1978 54.8293 76.9605 53.976C75.7445 53.1227 75.0618 51.9067 74.9125 50.328H76.3845C76.4912 51.4587 77.0032 52.3547 77.9205 53.016C78.8592 53.6773 80.1285 54.008 81.7285 54.008C83.0512 54.008 84.0965 53.6773 84.8645 53.016C85.6538 52.3333 86.0485 51.5013 86.0485 50.52C86.0485 49.8373 85.8352 49.2827 85.4085 48.856C85.0032 48.408 84.4912 48.0667 83.8725 47.832C83.2538 47.5973 82.4112 47.3413 81.3445 47.064C80.0645 46.7227 79.0298 46.392 78.2405 46.072C77.4512 45.7307 76.7792 45.2293 76.2245 44.568C75.6698 43.9067 75.3925 43.0213 75.3925 41.912C75.3925 41.1013 75.6378 40.3547 76.1285 39.672C76.6192 38.968 77.3018 38.4133 78.1765 38.008C79.0512 37.6027 80.0432 37.4 81.1525 37.4C82.9658 37.4 84.4272 37.8587 85.5365 38.776C86.6672 39.672 87.2752 40.92 87.3605 42.52H85.9205C85.8565 41.368 85.4085 40.4293 84.5765 39.704C83.7445 38.9787 82.5925 38.616 81.1205 38.616C79.8832 38.616 78.8592 38.936 78.0485 39.576C77.2378 40.216 76.8325 40.9947 76.8325 41.912C76.8325 42.7227 77.0565 43.384 77.5045 43.896C77.9738 44.3867 78.5392 44.7707 79.2005 45.048C79.8832 45.304 80.7792 45.5813 81.8885 45.88C83.1045 46.2 84.0752 46.52 84.8005 46.84C85.5472 47.1387 86.1765 47.5867 86.6885 48.184C87.2005 48.76 87.4565 49.5387 87.4565 50.52C87.4565 51.416 87.2112 52.2267 86.7205 52.952C86.2298 53.6773 85.5472 54.2427 84.6725 54.648C83.7978 55.0533 82.8165 55.256 81.7285 55.256Z" fill="#0000FF"/>
</svg>
