<svg width="141" height="66" viewBox="0 0 141 66" fill="none" xmlns="http://www.w3.org/2000/svg">
<path d="M1 49L33 17M1 54.3333L22.3333 43.6667L33 22.3333M1 59.6667L27.6667 54.3333L33 27.6667M1 43.6667L11.6667 22.3333L33 11.6667M1 38.3333L6.33333 11.6667L33 6.33333M1 1H33V65H1V1Z" stroke="#0000FF" stroke-width="1.2"/>
<path d="M67.688 28H66.248L53.064 7.904V28H51.624V5.568H53.064L66.248 25.6V5.568H67.688V28ZM88.6158 18.144C88.6158 18.912 88.5944 19.488 88.5518 19.872H73.5438C73.5864 21.4293 73.9278 22.7413 74.5677 23.808C75.2078 24.8747 76.0504 25.6747 77.0958 26.208C78.1411 26.7413 79.2824 27.008 80.5198 27.008C82.2264 27.008 83.6558 26.592 84.8078 25.76C85.9598 24.9067 86.6851 23.7547 86.9838 22.304H88.4878C88.1464 24.0747 87.2718 25.5147 85.8638 26.624C84.4558 27.712 82.6744 28.256 80.5198 28.256C78.8984 28.256 77.4478 27.8933 76.1678 27.168C74.8878 26.4427 73.8851 25.408 73.1598 24.064C72.4344 22.6987 72.0718 21.1093 72.0718 19.296C72.0718 17.4827 72.4238 15.904 73.1278 14.56C73.8531 13.216 74.8558 12.192 76.1358 11.488C77.4158 10.7627 78.8771 10.4 80.5198 10.4C82.1838 10.4 83.6238 10.7627 84.8398 11.488C86.0771 12.192 87.0158 13.1413 87.6558 14.336C88.2958 15.5093 88.6158 16.7787 88.6158 18.144ZM87.1758 18.688C87.2398 17.152 86.9624 15.8507 86.3438 14.784C85.7464 13.7173 84.9251 12.928 83.8798 12.416C82.8344 11.8827 81.7038 11.616 80.4878 11.616C79.2718 11.616 78.1411 11.8827 77.0958 12.416C76.0718 12.928 75.2291 13.7173 74.5677 14.784C73.9278 15.8507 73.5864 17.152 73.5438 18.688H87.1758ZM95.1118 11.872V23.36C95.1118 24.64 95.3464 25.5253 95.8158 26.016C96.2851 26.4853 97.1171 26.72 98.3118 26.72H100.264V28H98.0878C96.5731 28 95.4531 27.648 94.7278 26.944C94.0238 26.2187 93.6718 25.024 93.6718 23.36V11.872H91.0478V10.624H93.6718V6.208H95.1118V10.624H100.264V11.872H95.1118ZM67.688 60H66.248L53.064 39.904V60H51.624V37.568H53.064L66.248 57.6V37.568H67.688V60ZM88.6158 50.144C88.6158 50.912 88.5944 51.488 88.5518 51.872H73.5438C73.5864 53.4293 73.9278 54.7413 74.5677 55.808C75.2078 56.8747 76.0504 57.6747 77.0958 58.208C78.1411 58.7413 79.2824 59.008 80.5198 59.008C82.2264 59.008 83.6558 58.592 84.8078 57.76C85.9598 56.9067 86.6851 55.7547 86.9838 54.304H88.4878C88.1464 56.0747 87.2718 57.5147 85.8638 58.624C84.4558 59.712 82.6744 60.256 80.5198 60.256C78.8984 60.256 77.4478 59.8933 76.1678 59.168C74.8878 58.4427 73.8851 57.408 73.1598 56.064C72.4344 54.6987 72.0718 53.1093 72.0718 51.296C72.0718 49.4827 72.4238 47.904 73.1278 46.56C73.8531 45.216 74.8558 44.192 76.1358 43.488C77.4158 42.7627 78.8771 42.4 80.5198 42.4C82.1838 42.4 83.6238 42.7627 84.8398 43.488C86.0771 44.192 87.0158 45.1413 87.6558 46.336C88.2958 47.5093 88.6158 48.7787 88.6158 50.144ZM87.1758 50.688C87.2398 49.152 86.9624 47.8507 86.3438 46.784C85.7464 45.7173 84.9251 44.928 83.8798 44.416C82.8344 43.8827 81.7038 43.616 80.4878 43.616C79.2718 43.616 78.1411 43.8827 77.0958 44.416C76.0718 44.928 75.2291 45.7173 74.5677 46.784C73.9278 47.8507 73.5864 49.152 73.5438 50.688H87.1758ZM102.152 60L97.2558 52.352L92.4557 60H90.9198L96.5198 51.232L90.9838 42.624H92.6158L97.4478 50.112L102.184 42.624H103.688L98.1518 51.264L103.784 60H102.152ZM121.687 42.624V60H120.247V56.224C119.756 57.5467 118.935 58.56 117.783 59.264C116.652 59.9467 115.351 60.288 113.879 60.288C111.81 60.288 110.114 59.6587 108.791 58.4C107.49 57.12 106.839 55.232 106.839 52.736V42.624H108.247V52.64C108.247 54.7093 108.77 56.2987 109.815 57.408C110.86 58.496 112.279 59.04 114.071 59.04C115.948 59.04 117.442 58.4427 118.551 57.248C119.682 56.0533 120.247 54.2827 120.247 51.936V42.624H121.687ZM132.729 60.256C130.787 60.256 129.198 59.8293 127.961 58.976C126.745 58.1227 126.062 56.9067 125.913 55.328H127.385C127.491 56.4587 128.003 57.3547 128.921 58.016C129.859 58.6773 131.129 59.008 132.729 59.008C134.051 59.008 135.097 58.6773 135.865 58.016C136.654 57.3333 137.049 56.5013 137.049 55.52C137.049 54.8373 136.835 54.2827 136.409 53.856C136.003 53.408 135.491 53.0667 134.873 52.832C134.254 52.5973 133.411 52.3413 132.345 52.064C131.065 51.7227 130.03 51.392 129.241 51.072C128.451 50.7307 127.779 50.2293 127.225 49.568C126.67 48.9067 126.393 48.0213 126.393 46.912C126.393 46.1013 126.638 45.3547 127.129 44.672C127.619 43.968 128.302 43.4133 129.177 43.008C130.051 42.6027 131.043 42.4 132.153 42.4C133.966 42.4 135.427 42.8587 136.537 43.776C137.667 44.672 138.275 45.92 138.361 47.52H136.921C136.857 46.368 136.409 45.4293 135.577 44.704C134.745 43.9787 133.593 43.616 132.121 43.616C130.883 43.616 129.859 43.936 129.049 44.576C128.238 45.216 127.833 45.9947 127.833 46.912C127.833 47.7227 128.057 48.384 128.505 48.896C128.974 49.3867 129.539 49.7707 130.201 50.048C130.883 50.304 131.779 50.5813 132.889 50.88C134.105 51.2 135.075 51.52 135.801 51.84C136.547 52.1387 137.177 52.5867 137.689 53.184C138.201 53.76 138.457 54.5387 138.457 55.52C138.457 56.416 138.211 57.2267 137.721 57.952C137.23 58.6773 136.547 59.2427 135.673 59.648C134.798 60.0533 133.817 60.256 132.729 60.256Z" fill="#0000FF"/>
</svg>
